<?xml version="1.0" encoding="iso-8859-1"?>
<!-- Generator: Adobe Illustrator 19.0.0, SVG Export Plug-In . SVG Version: 6.00 Build 0)  -->
<svg version="1.1" id="Layer_1" xmlns="http://www.w3.org/2000/svg" xmlns:xlink="http://www.w3.org/1999/xlink" x="0px" y="0px"
	 viewBox="0 0 512.005 512.005" style="enable-background:new 0 0 512.005 512.005;" xml:space="preserve">
<g>
	<g>
		<path d="M506.901,350.993l-14.946-6.191c-48.099-49.3-48.099-128.295,0-177.595l14.946-6.191
			c4.214-1.745,6.215-6.576,4.469-10.789c-1.745-4.214-6.576-6.215-10.789-4.469l-14.922,6.181
			c-28.099-0.334-54.602-9.611-76.731-26.922c-3.594-2.812-8.783-2.178-11.592,1.416c-2.81,3.593-2.177,8.783,1.416,11.592
			c16.726,13.085,35.663,22.108,55.868,26.769L403.1,186.134c-42.229-0.82-76.409-35.001-77.23-77.23l21.341-51.521
			c4.661,20.204,13.684,39.139,26.769,55.866c2.811,3.593,8,4.227,11.592,1.416c3.593-2.81,4.226-8,1.416-11.592
			c-17.31-22.128-26.586-48.631-26.921-76.73l6.181-14.923c1.746-4.214-0.254-9.044-4.469-10.789
			c-4.21-1.748-9.043,0.255-10.789,4.469l-6.192,14.95c-23.889,23.313-55.354,36.141-88.795,36.141s-64.906-12.827-88.796-36.141
			l-6.192-14.95c-1.745-4.214-6.576-6.214-10.789-4.469c-4.214,1.745-6.216,6.576-4.469,10.789l6.193,14.956
			C151.097,95.245,95.241,151.1,26.374,151.952l-14.95-6.192c-4.21-1.748-9.044,0.255-10.789,4.469
			c-1.746,4.214,0.254,9.044,4.469,10.789l14.946,6.191c48.099,49.3,48.099,128.294,0,177.594l-14.946,6.191
			c-4.214,1.745-6.216,6.576-4.469,10.789c1.317,3.181,4.391,5.1,7.633,5.1c1.053,0,2.124-0.204,3.157-0.631l14.95-6.192
			c68.868,0.849,124.724,56.705,125.575,125.572l-6.192,14.95c-1.746,4.214,0.254,9.044,4.469,10.789
			c4.211,1.75,9.043-0.254,10.789-4.469l6.192-14.95c23.889-23.313,55.354-36.141,88.796-36.141
			c33.443,0,64.906,12.827,88.795,36.141l6.192,14.95c1.317,3.181,4.391,5.1,7.633,5.1c1.053,0,2.124-0.204,3.157-0.631
			c4.214-1.745,6.215-6.576,4.469-10.789l-6.192-14.95c0.852-68.868,56.708-124.723,125.575-125.575l14.95,6.192
			c1.033,0.429,2.103,0.631,3.157,0.631c3.24,0,6.315-1.92,7.633-5.1C513.117,357.568,511.115,352.738,506.901,350.993z
			 M381.074,298.873l-103.492-42.869l103.492-42.868C367.564,240.017,367.565,271.993,381.074,298.873z M374.752,197.879
			L271.26,240.747l42.869-103.493C323.583,165.814,346.193,188.425,374.752,197.879z M130.932,213.138l44.713,18.521
			c1.033,0.429,2.104,0.631,3.157,0.631c3.24,0,6.315-1.92,7.633-5.1c1.745-4.214-0.255-9.044-4.469-10.789l-44.713-18.521
			c28.559-9.455,51.17-32.065,60.624-60.626l42.868,103.493l-28.255-11.704c-4.21-1.748-9.044,0.255-10.789,4.469
			c-1.746,4.214,0.254,9.044,4.469,10.789l28.254,11.704l-103.491,42.868C144.442,271.993,144.442,240.018,130.932,213.138z
			 M240.745,271.263l-42.869,103.493c-9.455-28.559-32.064-51.17-60.623-60.626L240.745,271.263z M256.002,277.584l42.842,103.429
			c-13.127-6.617-27.713-10.126-42.842-10.126c-15.129,0-29.714,3.51-42.842,10.126L256.002,277.584z M213.16,130.997
			c13.128,6.617,27.714,10.126,42.842,10.126c15.129,0,29.714-3.51,42.842-10.126l-42.842,103.43L213.16,130.997z M256.002,72.713
			c27.273,0,53.386-7.55,75.955-21.656l-21.346,51.534c-14.753,14.198-34.075,22.016-54.608,22.016s-39.855-7.818-54.608-22.016
			l-21.346-51.535C202.617,65.163,228.728,72.713,256.002,72.713z M164.767,57.323l21.367,51.585
			c-0.82,42.229-35.001,76.409-77.23,77.23l-51.584-21.367C110.477,152.418,152.413,110.481,164.767,57.323z M50.95,180.008
			l51.636,21.388c29.278,30.44,29.278,78.778,0,109.218l-51.635,21.388C79.832,285.664,79.832,226.346,50.95,180.008z
			 M164.769,454.685c-12.354-53.156-54.291-95.092-107.447-107.446l51.584-21.367c42.229,0.82,76.409,35.001,77.23,77.23
			L164.769,454.685z M256.002,439.297c-27.274,0-53.386,7.551-75.954,21.657l21.346-51.535
			c14.753-14.198,34.075-22.016,54.608-22.016c20.534,0,39.855,7.818,54.608,22.016l21.346,51.535
			C309.387,446.848,283.276,439.297,256.002,439.297z M347.237,454.687l-21.377-51.61c0.299-15.266,4.938-29.955,13.488-42.575
			c2.558-3.776,1.571-8.911-2.204-11.469c-3.776-2.557-8.91-1.571-11.469,2.204c-4.959,7.32-8.828,15.216-11.56,23.485
			L271.26,271.263l103.46,42.854c-8.269,2.732-16.166,6.6-23.485,11.56c-3.776,2.558-4.762,7.692-2.204,11.469
			c2.558,3.777,7.692,4.761,11.469,2.204c12.618-8.55,27.308-13.188,42.575-13.488l51.609,21.377
			C401.526,359.593,359.591,401.531,347.237,454.687z M409.419,310.615c-29.279-30.44-29.279-78.778,0-109.218l51.634-21.388
			c-28.884,46.339-28.881,105.653,0.002,151.994L409.419,310.615z"/>
	</g>
</g>
<g>
</g>
<g>
</g>
<g>
</g>
<g>
</g>
<g>
</g>
<g>
</g>
<g>
</g>
<g>
</g>
<g>
</g>
<g>
</g>
<g>
</g>
<g>
</g>
<g>
</g>
<g>
</g>
<g>
</g>
</svg>
